<svg width="25" height="24" viewBox="0 0 25 24" fill="none" xmlns="http://www.w3.org/2000/svg">
<path d="M16.255 14.255H15.465L15.185 13.985C16.165 12.845 16.755 11.365 16.755 9.755C16.755 6.165 13.845 3.255 10.255 3.255C6.665 3.255 3.755 6.165 3.755 9.755C3.755 13.345 6.665 16.255 10.255 16.255C11.865 16.255 13.345 15.665 14.485 14.685L14.755 14.965V15.755L19.755 20.745L21.245 19.255L16.255 14.255ZM10.255 14.255C7.76501 14.255 5.755 12.245 5.755 9.755C5.755 7.26501 7.76501 5.255 10.255 5.255C12.745 5.255 14.755 7.26501 14.755 9.755C14.755 12.245 12.745 14.255 10.255 14.255Z" fill="#808184"/>
</svg>
