<svg width="25" height="24" viewBox="0 0 25 24" fill="none" xmlns="http://www.w3.org/2000/svg">
<path d="M16.4038 13.1602L14.2825 15.2815L20.2788 21.2777L22.4001 19.1564L16.4038 13.1602Z" fill="#808184"/>
<path d="M17.9999 10.1097C19.9299 10.1097 21.4999 8.53967 21.4999 6.60967C21.4999 6.02967 21.3399 5.48967 21.0899 5.00967L18.3899 7.70967L16.8999 6.21967L19.5999 3.51967C19.1199 3.26967 18.5799 3.10967 17.9999 3.10967C16.0699 3.10967 14.4999 4.67967 14.4999 6.60967C14.4999 7.01967 14.5799 7.40967 14.7099 7.76967L12.8599 9.61967L11.0799 7.83967L11.7899 7.12967L10.3799 5.71967L12.4999 3.59967C11.3299 2.42967 9.42985 2.42967 8.25985 3.59967L4.71985 7.13967L6.12985 8.54967H3.30985L2.59985 9.25967L6.13985 12.7997L6.84985 12.0897V9.25967L8.25985 10.6697L8.96985 9.95967L10.7499 11.7397L3.33985 19.1497L5.45985 21.2697L16.8399 9.89967C17.1999 10.0297 17.5899 10.1097 17.9999 10.1097Z" fill="#808184"/>
</svg>
