<svg width="25" height="25" viewBox="0 0 25 25" fill="none" xmlns="http://www.w3.org/2000/svg">
<path d="M12.5 7C16.29 7 19.67 9.13 21.32 12.5C19.67 15.87 16.29 18 12.5 18C8.71 18 5.33 15.87 3.68 12.5C5.33 9.13 8.71 7 12.5 7ZM12.5 5C7.5 5 3.23 8.11 1.5 12.5C3.23 16.89 7.5 20 12.5 20C17.5 20 21.77 16.89 23.5 12.5C21.77 8.11 17.5 5 12.5 5ZM12.5 10C13.88 10 15 11.12 15 12.5C15 13.88 13.88 15 12.5 15C11.12 15 10 13.88 10 12.5C10 11.12 11.12 10 12.5 10ZM12.5 8C10.02 8 8 10.02 8 12.5C8 14.98 10.02 17 12.5 17C14.98 17 17 14.98 17 12.5C17 10.02 14.98 8 12.5 8Z" fill="#1C1C1D"/>
</svg>
